# Blender 5.2.1 LTS
# www.blender.org
mtllib Donut.mtl
o Cylinder
v 0.000000 -0.100000 -1.000000
v 0.000000 0.100000 -1.000000
v 0.195090 -0.100000 -0.980785
v 0.195090 0.100000 -0.980785
v 0.382683 -0.100000 -0.923880
v 0.382683 0.100000 -0.923880
v 0.555570 -0.100000 -0.831470
v 0.555570 0.100000 -0.831470
v 0.707107 -0.100000 -0.707107
v 0.707107 0.100000 -0.707107
v 0.831470 -0.100000 -0.555570
v 0.831470 0.100000 -0.555570
v 0.923880 -0.100000 -0.382683
v 0.923880 0.100000 -0.382683
v 0.980785 -0.100000 -0.195090
v 0.980785 0.100000 -0.195090
v 1.000000 -0.100000 0.000000
v 1.000000 0.100000 0.000000
v 0.980785 -0.100000 0.195090
v 0.980785 0.100000 0.195090
v 0.923880 -0.100000 0.382683
v 0.923880 0.100000 0.382683
v 0.831470 -0.100000 0.555570
v 0.831470 0.100000 0.555570
v 0.707107 -0.100000 0.707107
v 0.707107 0.100000 0.707107
v 0.555570 -0.100000 0.831470
v 0.555570 0.100000 0.831470
v 0.382683 -0.100000 0.923880
v 0.382683 0.100000 0.923880
v 0.195090 -0.100000 0.980785
v 0.195090 0.100000 0.980785
v 0.000000 -0.100000 1.000000
v 0.000000 0.100000 1.000000
v -0.195090 -0.100000 0.980785
v -0.195090 0.100000 0.980785
v -0.382683 -0.100000 0.923880
v -0.382683 0.100000 0.923880
v -0.555570 -0.100000 0.831470
v -0.555570 0.100000 0.831470
v -0.707107 -0.100000 0.707107
v -0.707107 0.100000 0.707107
v -0.831470 -0.100000 0.555570
v -0.831470 0.100000 0.555570
v -0.923880 -0.100000 0.382683
v -0.923880 0.100000 0.382683
v -0.980785 -0.100000 0.195090
v -0.980785 0.100000 0.195090
v -1.000000 -0.100000 0.000000
v -1.000000 0.100000 0.000000
v -0.980785 -0.100000 -0.195090
v -0.980785 0.100000 -0.195090
v -0.923880 -0.100000 -0.382683
v -0.923880 0.100000 -0.382683
v -0.831470 -0.100000 -0.555570
v -0.831470 0.100000 -0.555570
v -0.707107 -0.100000 -0.707107
v -0.707107 0.100000 -0.707107
v -0.555570 -0.100000 -0.831470
v -0.555570 0.100000 -0.831470
v -0.382683 -0.100000 -0.923880
v -0.382683 0.100000 -0.923880
v -0.195090 -0.100000 -0.980785
v -0.195090 0.100000 -0.980785
v -0.600000 0.100000 0.000000
v -0.554328 0.100000 0.229610
v -0.588471 0.100000 0.117054
v -0.588471 0.100000 -0.117054
v -0.498882 0.100000 0.333342
v -0.498882 0.100000 -0.333342
v -0.554328 0.100000 -0.229610
v -0.424264 0.100000 -0.424264
v -0.333342 0.100000 0.498882
v -0.229610 0.100000 0.554328
v -0.333342 0.100000 -0.498882
v -0.117054 0.100000 -0.588471
v 0.117054 0.100000 -0.588471
v 0.000000 0.100000 -0.600000
v -0.229610 0.100000 -0.554328
v -0.424264 0.100000 0.424264
v -0.117054 0.100000 0.588471
v 0.117054 0.100000 0.588471
v 0.000000 0.100000 0.600000
v 0.333342 0.100000 -0.498882
v 0.333342 0.100000 0.498882
v 0.229610 0.100000 -0.554328
v 0.229610 0.100000 0.554328
v 0.498882 0.100000 -0.333342
v 0.498882 0.100000 0.333342
v 0.424264 0.100000 -0.424264
v 0.600000 0.100000 0.000000
v 0.588471 0.100000 -0.117054
v 0.554328 0.100000 0.229610
v 0.588471 0.100000 0.117054
v 0.554328 0.100000 -0.229610
v 0.424264 0.100000 0.424264
v 0.000000 -0.100000 -0.600000
v 0.117054 -0.100000 -0.588471
v 0.229610 -0.100000 0.554328
v 0.333342 -0.100000 -0.498882
v 0.333342 -0.100000 0.498882
v 0.117054 -0.100000 0.588471
v 0.229610 -0.100000 -0.554328
v 0.498882 -0.100000 0.333342
v 0.424264 -0.100000 0.424264
v 0.498882 -0.100000 -0.333342
v 0.600000 -0.100000 0.000000
v 0.588471 -0.100000 -0.117054
v 0.554328 -0.100000 0.229610
v 0.588471 -0.100000 0.117054
v 0.554328 -0.100000 -0.229610
v 0.424264 -0.100000 -0.424264
v -0.600000 -0.100000 0.000000
v -0.554328 -0.100000 0.229610
v -0.588471 -0.100000 0.117054
v -0.588471 -0.100000 -0.117054
v -0.498882 -0.100000 0.333342
v -0.498882 -0.100000 -0.333342
v -0.424264 -0.100000 0.424264
v -0.554328 -0.100000 -0.229610
v -0.229610 -0.100000 -0.554328
v -0.333342 -0.100000 0.498882
v -0.333342 -0.100000 -0.498882
v -0.117054 -0.100000 -0.588471
v 0.000000 -0.100000 0.600000
v -0.117054 -0.100000 0.588471
v -0.229610 -0.100000 0.554328
v -0.424264 -0.100000 -0.424264
vn 0.0980 -0.0000 -0.9952
vn 0.2903 -0.0000 -0.9569
vn 0.4714 -0.0000 -0.8819
vn 0.6344 -0.0000 -0.7730
vn 0.7730 -0.0000 -0.6344
vn 0.8819 -0.0000 -0.4714
vn 0.9569 -0.0000 -0.2903
vn 0.9952 -0.0000 -0.0980
vn 0.9952 -0.0000 0.0980
vn 0.9569 -0.0000 0.2903
vn 0.8819 -0.0000 0.4714
vn 0.7730 -0.0000 0.6344
vn 0.6344 -0.0000 0.7730
vn 0.4714 -0.0000 0.8819
vn 0.2903 -0.0000 0.9569
vn 0.0980 -0.0000 0.9952
vn -0.0980 -0.0000 0.9952
vn -0.2903 -0.0000 0.9569
vn -0.4714 -0.0000 0.8819
vn -0.6344 -0.0000 0.7730
vn -0.7730 -0.0000 0.6344
vn -0.8819 -0.0000 0.4714
vn -0.9569 -0.0000 0.2903
vn -0.9952 -0.0000 0.0980
vn -0.9952 -0.0000 -0.0980
vn -0.9569 -0.0000 -0.2903
vn -0.8819 -0.0000 -0.4714
vn -0.7730 -0.0000 -0.6344
vn -0.6344 -0.0000 -0.7730
vn -0.4714 -0.0000 -0.8819
vn -0.0000 1.0000 -0.0000
vn -0.2903 -0.0000 -0.9569
vn -0.0980 -0.0000 -0.9952
vn -0.0000 -1.0000 -0.0000
vt 1.000000 1.000000
vt 0.968750 0.500000
vt 1.000000 0.500000
vt 0.968750 1.000000
vt 0.937500 0.500000
vt 0.937500 1.000000
vt 0.906250 0.500000
vt 0.906250 1.000000
vt 0.875000 0.500000
vt 0.875000 1.000000
vt 0.843750 0.500000
vt 0.843750 1.000000
vt 0.812500 0.500000
vt 0.812500 1.000000
vt 0.781250 0.500000
vt 0.781250 1.000000
vt 0.750000 0.500000
vt 0.750000 1.000000
vt 0.718750 0.500000
vt 0.718750 1.000000
vt 0.687500 0.500000
vt 0.687500 1.000000
vt 0.656250 0.500000
vt 0.656250 1.000000
vt 0.625000 0.500000
vt 0.625000 1.000000
vt 0.593750 0.500000
vt 0.593750 1.000000
vt 0.562500 0.500000
vt 0.562500 1.000000
vt 0.531250 0.500000
vt 0.531250 1.000000
vt 0.500000 0.500000
vt 0.500000 1.000000
vt 0.468750 0.500000
vt 0.468750 1.000000
vt 0.437500 0.500000
vt 0.437500 1.000000
vt 0.406250 0.500000
vt 0.406250 1.000000
vt 0.375000 0.500000
vt 0.375000 1.000000
vt 0.343750 0.500000
vt 0.343750 1.000000
vt 0.312500 0.500000
vt 0.312500 1.000000
vt 0.281250 0.500000
vt 0.281250 1.000000
vt 0.250000 0.500000
vt 0.250000 1.000000
vt 0.218750 0.500000
vt 0.218750 1.000000
vt 0.187500 0.500000
vt 0.187500 1.000000
vt 0.156250 0.500000
vt 0.156250 1.000000
vt 0.125000 0.500000
vt 0.125000 1.000000
vt 0.093750 0.500000
vt 0.093750 1.000000
vt 0.062500 0.500000
vt 0.106000 0.250000
vt 0.108767 0.278093
vt 0.010000 0.250000
vt 0.383039 0.194894
vt 0.369732 0.169998
vt 0.449553 0.116663
vt 0.062500 1.000000
vt 0.031250 0.500000
vt 0.031250 1.000000
vt 0.000000 0.500000
vt 0.869732 0.330002
vt 0.851823 0.351823
vt 0.919706 0.419706
vt 0.514612 0.203178
vt 0.608767 0.221907
vt 0.616961 0.194894
vt 0.968750 0.775000
vt 1.000000 0.725000
vt 0.968750 0.725000
vt 0.937500 0.775000
vt 0.937500 0.725000
vt 0.906250 0.775000
vt 0.906250 0.725000
vt 0.875000 0.775000
vt 0.875000 0.725000
vt 0.843750 0.725000
vt 0.843750 0.775000
vt 0.812500 0.725000
vt 0.812500 0.775000
vt 0.781250 0.725000
vt 0.781250 0.775000
vt 0.750000 0.725000
vt 0.750000 0.775000
vt 0.718750 0.725000
vt 0.718750 0.775000
vt 0.687500 0.725000
vt 0.687500 0.775000
vt 0.656250 0.725000
vt 0.656250 0.775000
vt 0.625000 0.725000
vt 0.625000 0.775000
vt 0.593750 0.725000
vt 0.593750 0.775000
vt 0.562500 0.725000
vt 0.562500 0.775000
vt 0.531250 0.725000
vt 0.531250 0.775000
vt 0.500000 0.725000
vt 0.500000 0.775000
vt 0.468750 0.725000
vt 0.468750 0.775000
vt 0.437500 0.725000
vt 0.437500 0.775000
vt 0.406250 0.725000
vt 0.406250 0.775000
vt 0.375000 0.725000
vt 0.375000 0.775000
vt 0.343750 0.775000
vt 0.343750 0.725000
vt 0.312500 0.775000
vt 0.312500 0.725000
vt 0.281250 0.775000
vt 0.281250 0.725000
vt 0.250000 0.775000
vt 0.250000 0.725000
vt 0.218750 0.775000
vt 0.218750 0.725000
vt 0.187500 0.775000
vt 0.187500 0.725000
vt 0.156250 0.775000
vt 0.156250 0.725000
vt 0.125000 0.775000
vt 0.125000 0.725000
vt 0.093750 0.775000
vt 0.093750 0.725000
vt 0.062500 0.775000
vt 0.062500 0.725000
vt 0.031250 0.775000
vt 0.031250 0.725000
vt 0.000000 0.775000
vt 0.000000 0.725000
vt 0.050447 0.116663
vt 0.080294 0.080294
vt 0.148177 0.148177
vt 0.116663 0.050447
vt 0.169998 0.130268
vt 0.158156 0.028269
vt 0.194894 0.116961
vt 0.028269 0.158156
vt 0.130268 0.169998
vt 0.014612 0.203178
vt 0.108767 0.221907
vt 0.028269 0.341844
vt 0.014612 0.296822
vt 0.116961 0.305107
vt 0.080294 0.419706
vt 0.050447 0.383337
vt 0.130268 0.330002
vt 0.158156 0.471731
vt 0.116663 0.449553
vt 0.169998 0.369732
vt 0.148177 0.351823
vt 0.250000 0.490000
vt 0.203178 0.485388
vt 0.250000 0.394000
vt 0.221907 0.391233
vt 0.341844 0.471731
vt 0.296822 0.485388
vt 0.278093 0.391233
vt 0.305106 0.383039
vt 0.116961 0.194894
vt 0.194894 0.383039
vt 0.383337 0.050447
vt 0.419706 0.080294
vt 0.351823 0.148177
vt 0.471731 0.158156
vt 0.485388 0.203178
vt 0.490000 0.250000
vt 0.391233 0.221907
vt 0.485388 0.296822
vt 0.394000 0.250000
vt 0.471731 0.341844
vt 0.383039 0.305106
vt 0.449553 0.383337
vt 0.369732 0.330002
vt 0.419706 0.419706
vt 0.351823 0.351823
vt 0.383337 0.449553
vt 0.330002 0.369732
vt 0.341844 0.028269
vt 0.330002 0.130268
vt 0.250000 0.010000
vt 0.296822 0.014612
vt 0.250000 0.106000
vt 0.278093 0.108767
vt 0.203178 0.014612
vt 0.221907 0.108767
vt 0.305106 0.116961
vt 0.391233 0.278093
vt 0.000000 1.000000
vt 0.721907 0.391233
vt 0.703178 0.485388
vt 0.750000 0.490000
vt 0.796822 0.485388
vt 0.750000 0.394000
vt 0.841844 0.471731
vt 0.778093 0.391233
vt 0.883337 0.449553
vt 0.830002 0.369732
vt 0.949553 0.383337
vt 0.971731 0.341844
vt 0.883039 0.305106
vt 0.985388 0.296822
vt 0.891233 0.278093
vt 0.990000 0.250000
vt 0.985388 0.203178
vt 0.894000 0.250000
vt 0.971731 0.158156
vt 0.891233 0.221907
vt 0.949553 0.116663
vt 0.869732 0.169998
vt 0.919706 0.080294
vt 0.851824 0.148177
vt 0.883337 0.050447
vt 0.830002 0.130268
vt 0.841844 0.028269
vt 0.805106 0.116961
vt 0.796822 0.014612
vt 0.778093 0.108767
vt 0.805106 0.383039
vt 0.883039 0.194894
vt 0.750000 0.106000
vt 0.750000 0.010000
vt 0.703178 0.014612
vt 0.721907 0.108767
vt 0.658156 0.028269
vt 0.694894 0.116961
vt 0.616663 0.050447
vt 0.580294 0.080294
vt 0.669998 0.130268
vt 0.550447 0.116663
vt 0.648177 0.148177
vt 0.528269 0.158156
vt 0.630268 0.169998
vt 0.510000 0.250000
vt 0.606000 0.250000
vt 0.514612 0.296822
vt 0.608767 0.278093
vt 0.528269 0.341844
vt 0.616961 0.305106
vt 0.550447 0.383337
vt 0.630268 0.330002
vt 0.580294 0.419706
vt 0.616663 0.449553
vt 0.648177 0.351823
vt 0.658156 0.471731
vt 0.669998 0.369732
vt 0.694894 0.383039
vt 1.000000 0.775000
s 0
usemtl 
f 2/1/1 3/2/1 1/3/1
f 4/4/2 5/5/2 3/2/2
f 6/6/3 7/7/3 5/5/3
f 8/8/4 9/9/4 7/7/4
f 10/10/5 11/11/5 9/9/5
f 12/12/6 13/13/6 11/11/6
f 14/14/7 15/15/7 13/13/7
f 16/16/8 17/17/8 15/15/8
f 18/18/9 19/19/9 17/17/9
f 20/20/10 21/21/10 19/19/10
f 22/22/11 23/23/11 21/21/11
f 24/24/12 25/25/12 23/23/12
f 26/26/13 27/27/13 25/25/13
f 28/28/14 29/29/14 27/27/14
f 30/30/15 31/31/15 29/29/15
f 32/32/16 33/33/16 31/31/16
f 34/34/17 35/35/17 33/33/17
f 36/36/18 37/37/18 35/35/18
f 38/38/19 39/39/19 37/37/19
f 40/40/20 41/41/20 39/39/20
f 42/42/21 43/43/21 41/41/21
f 44/44/22 45/45/22 43/43/22
f 46/46/23 47/47/23 45/45/23
f 48/48/24 49/49/24 47/47/24
f 50/50/25 51/51/25 49/49/25
f 52/52/26 53/53/26 51/51/26
f 54/54/27 55/55/27 53/53/27
f 56/56/28 57/57/28 55/55/28
f 58/58/29 59/59/29 57/57/29
f 60/60/30 61/61/30 59/59/30
f 65/62/31 68/63/31 50/64/31
f 93/65/31 89/66/31 24/67/31
f 62/68/32 63/69/32 61/61/32
f 64/70/33 1/71/33 63/69/33
f 106/72/34 112/73/34 9/74/34
f 47/75/34 115/76/34 114/77/34
f 77/78/17 97/79/17 98/80/17
f 86/81/18 98/80/18 103/82/18
f 84/83/19 103/82/19 100/84/19
f 90/85/20 100/84/20 112/86/20
f 90/85/21 106/87/21 88/88/21
f 88/88/22 111/89/22 95/90/22
f 95/90/23 108/91/23 92/92/23
f 92/92/24 107/93/24 91/94/24
f 91/94/25 110/95/25 94/96/25
f 94/96/26 109/97/26 93/98/26
f 93/98/27 104/99/27 89/100/27
f 89/100/28 105/101/28 96/102/28
f 96/102/29 101/103/29 85/104/29
f 85/104/30 99/105/30 87/106/30
f 87/106/32 102/107/32 82/108/32
f 82/108/33 125/109/33 83/110/33
f 83/110/1 126/111/1 81/112/1
f 81/112/2 127/113/2 74/114/2
f 74/114/3 122/115/3 73/116/3
f 73/116/4 119/117/4 80/118/4
f 69/119/5 119/117/5 117/120/5
f 66/121/6 117/120/6 114/122/6
f 67/123/7 114/122/7 115/124/7
f 65/125/8 115/124/8 113/126/8
f 68/127/9 113/126/9 116/128/9
f 71/129/10 116/128/10 120/130/10
f 70/131/11 120/130/11 118/132/11
f 72/133/12 118/132/12 128/134/12
f 75/135/13 128/134/13 123/136/13
f 79/137/14 123/136/14 121/138/14
f 76/139/15 121/138/15 124/140/15
f 78/141/16 124/140/16 97/142/16
f 2/1/1 4/4/1 3/2/1
f 4/4/2 6/6/2 5/5/2
f 6/6/3 8/8/3 7/7/3
f 8/8/4 10/10/4 9/9/4
f 10/10/5 12/12/5 11/11/5
f 12/12/6 14/14/6 13/13/6
f 14/14/7 16/16/7 15/15/7
f 16/16/8 18/18/8 17/17/8
f 18/18/9 20/20/9 19/19/9
f 20/20/10 22/22/10 21/21/10
f 22/22/11 24/24/11 23/23/11
f 24/24/12 26/26/12 25/25/12
f 26/26/13 28/28/13 27/27/13
f 28/28/14 30/30/14 29/29/14
f 30/30/15 32/32/15 31/31/15
f 32/32/16 34/34/16 33/33/16
f 34/34/17 36/36/17 35/35/17
f 36/36/18 38/38/18 37/37/18
f 38/38/19 40/40/19 39/39/19
f 40/40/20 42/42/20 41/41/20
f 42/42/21 44/44/21 43/43/21
f 44/44/22 46/46/22 45/45/22
f 46/46/23 48/48/23 47/47/23
f 48/48/24 50/50/24 49/49/24
f 50/50/25 52/52/25 51/51/25
f 52/52/26 54/54/26 53/53/26
f 54/54/27 56/56/27 55/55/27
f 56/56/28 58/58/28 57/57/28
f 58/58/29 60/60/29 59/59/29
f 60/60/30 62/68/30 61/61/30
f 44/143/31 42/144/31 80/145/31
f 42/144/31 40/146/31 73/147/31
f 40/146/31 38/148/31 74/149/31
f 40/146/31 74/149/31 73/147/31
f 46/150/31 44/143/31 69/151/31
f 42/144/31 73/147/31 80/145/31
f 50/64/31 48/152/31 65/62/31
f 48/152/31 46/150/31 67/153/31
f 65/62/31 48/152/31 67/153/31
f 54/154/31 52/155/31 71/156/31
f 52/155/31 50/64/31 68/63/31
f 71/156/31 52/155/31 68/63/31
f 58/157/31 56/158/31 70/159/31
f 56/158/31 54/154/31 71/156/31
f 62/160/31 60/161/31 75/162/31
f 60/161/31 58/157/31 72/163/31
f 2/164/31 64/165/31 78/166/31
f 64/165/31 62/160/31 76/167/31
f 78/166/31 64/165/31 76/167/31
f 6/168/31 4/169/31 77/170/31
f 4/169/31 2/164/31 78/166/31
f 77/170/31 86/171/31 6/168/31
f 78/166/31 77/170/31 4/169/31
f 60/161/31 72/163/31 75/162/31
f 56/158/31 71/156/31 70/159/31
f 44/143/31 80/145/31 69/151/31
f 46/150/31 69/151/31 66/172/31
f 79/173/31 76/167/31 62/160/31
f 75/162/31 79/173/31 62/160/31
f 46/150/31 66/172/31 67/153/31
f 70/159/31 72/163/31 58/157/31
f 28/174/31 26/175/31 96/176/31
f 26/175/31 24/67/31 89/66/31
f 24/67/31 22/177/31 93/65/31
f 22/177/31 20/178/31 93/65/31
f 20/178/31 18/179/31 94/180/31
f 18/179/31 16/181/31 91/182/31
f 94/180/31 18/179/31 91/182/31
f 16/181/31 14/183/31 95/184/31
f 14/183/31 12/185/31 88/186/31
f 12/185/31 10/187/31 90/188/31
f 10/187/31 8/189/31 84/190/31
f 8/189/31 6/168/31 86/171/31
f 8/189/31 86/171/31 84/190/31
f 14/183/31 88/186/31 95/184/31
f 10/187/31 84/190/31 90/188/31
f 93/65/31 20/178/31 94/180/31
f 30/191/31 28/174/31 85/192/31
f 26/175/31 89/66/31 96/176/31
f 34/193/31 32/194/31 83/195/31
f 32/194/31 30/191/31 82/196/31
f 83/195/31 32/194/31 82/196/31
f 38/148/31 36/197/31 81/198/31
f 36/197/31 34/193/31 83/195/31
f 81/198/31 74/149/31 38/148/31
f 83/195/31 81/198/31 36/197/31
f 12/185/31 90/188/31 88/186/31
f 87/199/31 82/196/31 30/191/31
f 85/192/31 87/199/31 30/191/31
f 16/181/31 95/184/31 92/200/31
f 16/181/31 92/200/31 91/182/31
f 96/176/31 85/192/31 28/174/31
f 62/68/32 64/70/32 63/69/32
f 64/70/33 2/201/33 1/71/33
f 124/202/34 63/203/34 1/204/34
f 1/204/34 3/205/34 97/206/34
f 3/205/34 5/207/34 98/208/34
f 97/206/34 3/205/34 98/208/34
f 5/207/34 7/209/34 100/210/34
f 7/209/34 9/74/34 112/73/34
f 9/74/34 11/211/34 106/72/34
f 11/211/34 13/212/34 111/213/34
f 13/212/34 15/214/34 108/215/34
f 15/214/34 17/216/34 108/215/34
f 17/216/34 19/217/34 107/218/34
f 19/217/34 21/219/34 110/220/34
f 107/218/34 19/217/34 110/220/34
f 21/219/34 23/221/34 104/222/34
f 23/221/34 25/223/34 105/224/34
f 25/223/34 27/225/34 101/226/34
f 27/225/34 29/227/34 99/228/34
f 29/227/34 31/229/34 99/228/34
f 31/229/34 102/230/34 99/228/34
f 23/221/34 105/224/34 104/222/34
f 27/225/34 99/228/34 101/226/34
f 108/215/34 17/216/34 107/218/34
f 7/209/34 112/73/34 100/210/34
f 11/211/34 111/213/34 106/72/34
f 111/213/34 13/212/34 108/215/34
f 124/202/34 1/204/34 97/206/34
f 25/223/34 101/226/34 105/224/34
f 103/231/34 98/208/34 5/207/34
f 100/210/34 103/231/34 5/207/34
f 21/219/34 104/222/34 109/232/34
f 21/219/34 109/232/34 110/220/34
f 125/233/34 102/230/34 31/229/34
f 31/229/34 33/234/34 125/233/34
f 33/234/34 35/235/34 126/236/34
f 35/235/34 37/237/34 127/238/34
f 37/237/34 39/239/34 127/238/34
f 39/239/34 41/240/34 122/241/34
f 41/240/34 43/242/34 119/243/34
f 122/241/34 41/240/34 119/243/34
f 43/242/34 45/244/34 117/245/34
f 45/244/34 47/75/34 114/77/34
f 117/245/34 45/244/34 114/77/34
f 47/75/34 49/246/34 113/247/34
f 49/246/34 51/248/34 116/249/34
f 51/248/34 53/250/34 120/251/34
f 53/250/34 55/252/34 118/253/34
f 55/252/34 57/254/34 118/253/34
f 57/254/34 59/255/34 128/256/34
f 118/253/34 57/254/34 128/256/34
f 59/255/34 61/257/34 123/258/34
f 61/257/34 63/203/34 121/259/34
f 123/258/34 61/257/34 121/259/34
f 63/203/34 124/202/34 121/259/34
f 49/246/34 116/249/34 113/247/34
f 53/250/34 118/253/34 120/251/34
f 39/239/34 122/241/34 127/238/34
f 33/234/34 126/236/34 125/233/34
f 127/238/34 126/236/34 35/235/34
f 123/258/34 128/256/34 59/255/34
f 119/243/34 43/242/34 117/245/34
f 51/248/34 120/251/34 116/249/34
f 47/75/34 113/247/34 115/76/34
f 77/78/17 78/260/17 97/79/17
f 86/81/18 77/78/18 98/80/18
f 84/83/19 86/81/19 103/82/19
f 90/85/20 84/83/20 100/84/20
f 90/85/21 112/86/21 106/87/21
f 88/88/22 106/87/22 111/89/22
f 95/90/23 111/89/23 108/91/23
f 92/92/24 108/91/24 107/93/24
f 91/94/25 107/93/25 110/95/25
f 94/96/26 110/95/26 109/97/26
f 93/98/27 109/97/27 104/99/27
f 89/100/28 104/99/28 105/101/28
f 96/102/29 105/101/29 101/103/29
f 85/104/30 101/103/30 99/105/30
f 87/106/32 99/105/32 102/107/32
f 82/108/33 102/107/33 125/109/33
f 83/110/1 125/109/1 126/111/1
f 81/112/2 126/111/2 127/113/2
f 74/114/3 127/113/3 122/115/3
f 73/116/4 122/115/4 119/117/4
f 69/119/5 80/118/5 119/117/5
f 66/121/6 69/119/6 117/120/6
f 67/123/7 66/121/7 114/122/7
f 65/125/8 67/123/8 115/124/8
f 68/127/9 65/125/9 113/126/9
f 71/129/10 68/127/10 116/128/10
f 70/131/11 71/129/11 120/130/11
f 72/133/12 70/131/12 118/132/12
f 75/135/13 72/133/13 128/134/13
f 79/137/14 75/135/14 123/136/14
f 76/139/15 79/137/15 121/138/15
f 78/141/16 76/139/16 124/140/16
